<?xml version="1.0" encoding="utf-8"?>
<!-- Generator: Adobe Illustrator 19.0.0, SVG Export Plug-In . SVG Version: 6.00 Build 0)  -->
<svg version="1.1" id="Layer_1" xmlns="http://www.w3.org/2000/svg" xmlns:xlink="http://www.w3.org/1999/xlink" x="0px" y="0px"
	 width="35px" height="39px" viewBox="0 0 35 39" style="enable-background:new 0 0 35 39;" xml:space="preserve">
<style type="text/css">
	.st0{fill:#FFFFFF;}
</style>
<g id="XMLID_89_">
	<path id="XMLID_189_" class="st0" d="M18.7,35.1l-5.9-2c1.7-4.6,2.5-9.4,2.5-14.3c0-4.4-0.7-8.7-2-12.9l6-1.8
		c1.5,4.8,2.3,9.7,2.3,14.7C21.6,24.3,20.6,29.8,18.7,35.1z"/>
	<path id="XMLID_149_" class="st0" d="M31.5,39l-5.9-2c2.1-5.9,3.2-12,3.2-18.3c0-5.7-0.9-11.4-2.7-16.9L32,0c2,6.1,3,12.3,3,18.7
		C35,25.6,33.8,32.5,31.5,39z"/>
	<path id="XMLID_90_" class="st0" d="M5.9,31.2L0,29c1.3-3.3,1.9-6.8,1.9-10.3c0-3.1-0.5-6.1-1.4-9l6-1.8c1.1,3.5,1.7,7.1,1.7,10.8
		C8.2,23,7.4,27.2,5.9,31.2z"/>
</g>
</svg>
