<?xml version="1.0" encoding="utf-8"?>
<!-- Generator: Adobe Illustrator 19.0.0, SVG Export Plug-In . SVG Version: 6.00 Build 0)  -->
<svg version="1.1" id="Layer_1" xmlns="http://www.w3.org/2000/svg" xmlns:xlink="http://www.w3.org/1999/xlink" x="0px" y="0px"
	 width="513.3px" height="66.1px" viewBox="-508 213.3 513.3 66.1" style="enable-background:new -508 213.3 513.3 66.1;"
	 xml:space="preserve">
<style type="text/css">
	.st0{fill:#07193A;}
	.st1{fill:#ED2A46;}
</style>
<path id="XMLID_720_" class="st0" d="M-408.4,270.9l-8.4-3c2.4-6.7,3.6-13.8,3.6-20.9c0-6.4-1-12.8-2.9-18.9l8.5-2.7
	c2.2,7,3.3,14.2,3.3,21.5C-404.3,255.2-405.7,263.2-408.4,270.9z"/>
<path id="XMLID_719_" class="st0" d="M-390.2,276.6l-8.4-2.9c3-8.6,4.5-17.6,4.5-26.7c0-8.4-1.3-16.7-3.8-24.7l8.5-2.7
	c2.8,8.8,4.2,18,4.2,27.3C-385.3,257.1-386.9,267.1-390.2,276.6z"/>
<path id="XMLID_718_" class="st0" d="M-426.6,265.2l-8.4-3.1c1.8-4.8,2.7-9.9,2.7-15.1c0-4.5-0.7-8.9-2-13.1l8.5-2.7
	c1.6,5.1,2.4,10.4,2.4,15.8C-423.4,253.3-424.5,259.4-426.6,265.2z"/>
<g id="XMLID_659_">
	<g id="XMLID_230_">
		<path id="XMLID_253_" class="st1" d="M-339.1,231.2c11.1,0,18.3,7.5,18.3,17.6c0,10.1-7.2,17.6-18.3,17.6s-18.3-7.5-18.3-17.6
			C-357.4,238.7-350.2,231.2-339.1,231.2z M-339.1,258.4c5.3,0,9.2-3.8,9.2-9.6c0-5.7-4-9.6-9.2-9.6c-5.1,0-9.1,3.7-9.1,9.6
			C-348.2,254.4-344.3,258.4-339.1,258.4z"/>
		<path id="XMLID_251_" class="st1" d="M-313.3,232h8.6v3.3c2-2.2,5.6-4,9.6-4c8.2,0,13.8,4,13.8,14.5v19.7h-8.6v-18.1
			c0-5.4-2.8-7.9-7.5-7.9c-2.9,0-5.3,1.2-7.3,3.2v22.9h-8.6V232z"/>
		<path id="XMLID_249_" class="st1" d="M-272.5,213.3h8.6v39.5c0,3.8,0.9,5.5,2.9,5.5c1.3,0,2.5-0.6,3.5-1.3l1.8,6.6
			c-1.9,1.6-4.9,2.8-8.9,2.8c-5.2,0-7.9-3.1-7.9-10V213.3L-272.5,213.3z"/>
		<path id="XMLID_246_" class="st1" d="M-244.4,214.9c2.5,0,4.9,1.9,4.9,5c0,3.4-2.5,5.4-4.9,5.4c-2.9,0-5.4-1.9-5.4-5.4
			C-249.8,216.8-247.3,214.9-244.4,214.9z M-248.9,232h8.6v33.6h-8.6V232z"/>
		<path id="XMLID_244_" class="st1" d="M-229.5,232h8.6v3.3c2-2.2,5.6-4,9.6-4c8.2,0,13.8,4,13.8,14.5v19.7h-8.5v-18.1
			c0-5.4-2.8-7.9-7.5-7.9c-2.9,0-5.3,1.2-7.3,3.2v22.9h-8.6V232H-229.5z"/>
		<path id="XMLID_241_" class="st1" d="M-159.8,262.2c-3.4,2.8-8.1,4.2-12.9,4.2c-10.8,0-18.1-7-18.1-17.6c0-9.8,6.7-17.6,17.8-17.6
			c8.7,0,15.9,6.2,15.9,15.6c0,2.1-0.1,3.4-0.5,4.6h-24.3c0.7,5.1,4.8,7.8,10.1,7.8c4.1,0,7.5-1.5,9.5-3.1L-159.8,262.2z
			 M-182.2,245.6h16.5c0.1-4.1-2.8-7.3-7.7-7.3C-178.5,238.3-181.3,241.2-182.2,245.6z"/>
		<path id="XMLID_239_" class="st0" d="M-148,232h6v28h12.3v-28h6v28h12.3v-28h6v33.6H-148V232z"/>
		<path id="XMLID_237_" class="st0" d="M-98.8,232h30.6v6h-12.3v27.6h-6V238h-12.3L-98.8,232L-98.8,232z"/>
		<path id="XMLID_234_" class="st0" d="M-61.5,234.3c3-1.9,7-3.1,11.2-3.1c9.6,0,12.9,5,12.9,13.7v20.6H-43v-4.2
			c-2,2.5-5.2,4.9-10.8,4.9c-6.1,0-10.3-3.9-10.3-10.4c0-6.9,5.5-10.7,12.7-10.7c2.6,0,6.1,0.5,8.4,2.2c0-6.3-1-10.6-7.6-10.6
			c-4.1,0-6.6,1-9.3,2.5L-61.5,234.3z M-43,256.4v-4.3c-2.1-1.5-4.6-2.2-7.5-2.2c-3.6,0-7.2,1.6-7.2,5.5c0,3.2,2.2,5.3,6.1,5.3
			C-47.3,260.7-44.7,258.4-43,256.4z"/>
		<path id="XMLID_231_" class="st0" d="M1.9,217.3c-4.1,5.5-9.7,3.4-17.1,6.7c-6.3,2.8-8.1,9.9-8.5,16.2h0.1
			c2.2-4.7,7.6-7.8,13.3-7.8c9.6,0,15.6,6.6,15.6,16.7c0,9.4-7,17.3-17.3,17.3c-10.9,0-17.8-8-17.8-20.9c0-9.9,1.8-22.6,12.5-27.1
			c7.8-3.4,12.5-1.3,15.9-5.8L1.9,217.3z M-12.1,260.7c6.6,0,11.1-5.1,11.1-11.4c0-6.6-3.8-11.4-10.8-11.4c-6.4,0-10.5,4.3-11.6,8.6
			C-23.3,255.2-18.7,260.7-12.1,260.7z"/>
	</g>
</g>
<g id="XMLID_494_">
	<path id="XMLID_526_" class="st1" d="M-443.2,247c0,17.9-14.5,32.4-32.4,32.4c-17.9,0-32.4-14.5-32.4-32.4s14.5-32.4,32.4-32.4
		S-443.2,229.1-443.2,247z M-493.3,247c0,9.7,7.9,17.7,17.7,17.7c9.7,0,17.7-7.9,17.7-17.7c0-9.7-7.9-17.7-17.7-17.7
		C-485.3,229.4-493.3,237.3-493.3,247z"/>
</g>
</svg>
