<?xml version="1.0" encoding="utf-8"?>
<!-- Generator: Adobe Illustrator 19.0.0, SVG Export Plug-In . SVG Version: 6.00 Build 0)  -->
<svg version="1.1" id="Layer_1" xmlns="http://www.w3.org/2000/svg" xmlns:xlink="http://www.w3.org/1999/xlink" x="0px" y="0px"
	 width="48px" height="48px" viewBox="-741 222.4 48 48" style="enable-background:new -741 222.4 48 48;" xml:space="preserve">
<style type="text/css">
	.st0{fill:#1B3073;}
</style>
<g id="XMLID_88_">
	<path id="XMLID_91_" class="st0" d="M-717,222.4c-13.2,0-24,10.8-24,24s10.8,24,24,24s24-10.8,24-24S-703.8,222.4-717,222.4z
		 M-709.9,252.6h-14.3c-3.8,0.4-7.2,2.4-9.2,5.4c-2.4-3.4-3.7-7.4-3.7-11.6c0-11.2,9-20.3,20.1-20.3c11,0,20.1,9.1,20.1,20.3
		c0,4.2-1.3,8.2-3.7,11.7C-702.7,255.1-706.1,253.1-709.9,252.6z"/>
	<path id="XMLID_89_" class="st0" d="M-717,233c-5.5,0-10,4.2-10,9.4s4.5,9.4,10,9.4s10-4.2,10-9.4C-707,237.3-711.5,233-717,233z"
		/>
</g>
</svg>
