<?xml version="1.0" encoding="utf-8"?>
<!-- Generator: Adobe Illustrator 19.0.0, SVG Export Plug-In . SVG Version: 6.00 Build 0)  -->
<svg version="1.1" id="Layer_1" xmlns="http://www.w3.org/2000/svg" xmlns:xlink="http://www.w3.org/1999/xlink" x="0px" y="0px"
	 width="38px" height="38px" viewBox="-712.2 247.5 38 38" style="enable-background:new -712.2 247.5 38 38;" xml:space="preserve"
	>
<style type="text/css">
	.st0{fill-rule:evenodd;clip-rule:evenodd;fill:#043CB9;}
	.st1{fill:#FFFFFF;}
</style>
<g>
	<path class="st0" d="M-702.2,247.5h18c5.5,0,10,4.5,10,10v18c0,5.5-4.5,10-10,10h-18c-5.5,0-10-4.5-10-10v-18
		C-712.2,252-707.7,247.5-702.2,247.5z"/>
</g>
<path class="st1" d="M-697.7,278.5c-0.9,0-1.8-0.3-2.5-1l-5.3-5.3c-1.4-1.4-1.4-3.6,0-5c1.4-1.4,3.6-1.4,4.9,0l2.9,2.9l13-13
	c1.4-1.4,3.6-1.4,5,0c1.4,1.4,1.4,3.6,0,4.9l-15.5,15.5C-695.9,278.1-696.8,278.5-697.7,278.5z"/>
</svg>
