<?xml version="1.0" encoding="utf-8"?>
<!-- Generator: Adobe Illustrator 19.0.0, SVG Export Plug-In . SVG Version: 6.00 Build 0)  -->
<svg version="1.1" id="Layer_1" xmlns="http://www.w3.org/2000/svg" xmlns:xlink="http://www.w3.org/1999/xlink" x="0px" y="0px"
	 width="34px" height="34px" viewBox="-720 257.4 34 34" style="enable-background:new -720 257.4 34 34;" xml:space="preserve">
<style type="text/css">
	.st0{fill:#043CB9;}
</style>
<g>
	<path class="st0" d="M-688.2,272.2h-12.5v-12.5c0-1.2-1-2.2-2.2-2.2c-1.2,0-2.2,1-2.2,2.2v12.5h-12.5c-1.2,0-2.2,1-2.2,2.2
		c0,1.2,1,2.2,2.2,2.2h12.5v12.5c0,1.2,1,2.2,2.2,2.2c1.2,0,2.2-1,2.2-2.2v-12.5h12.5c1.2,0,2.2-1,2.2-2.2
		C-686,273.2-687,272.2-688.2,272.2z"/>
</g>
</svg>
